<?xml version="1.0" standalone="no"?>
<!DOCTYPE svg PUBLIC "-//W3C//DTD SVG 20010904//EN"
 "http://www.w3.org/TR/2001/REC-SVG-20010904/DTD/svg10.dtd">
<svg version="1.0" xmlns="http://www.w3.org/2000/svg"
 width="110.000000pt" height="113.000000pt" viewBox="0 0 110.000000 113.000000"
 preserveAspectRatio="xMidYMid meet">

<g transform="translate(0.000000,113.000000) scale(0.100000,-0.100000)"
fill="#000000" stroke="none">
<path d="M470 1114 c-236 -47 -420 -282 -420 -539 0 -200 123 -410 288 -493
347 -173 735 116 709 528 -18 280 -216 492 -472 505 -44 2 -91 1 -105 -1z
m110 -184 l0 -60 -30 0 -30 0 0 60 0 60 30 0 30 0 0 -60z m-237 -83 l36 -44
-21 -20 -20 -20 -40 43 c-40 43 -40 45 -23 64 10 11 21 20 25 20 4 0 24 -20
43 -43z m471 36 c9 -9 -75 -94 -86 -87 -8 5 59 94 72 94 3 0 10 -3 14 -7z
m-168 -74 c77 -37 77 -36 -42 -166 -206 -225 -226 -245 -236 -231 -94 134 -53
329 85 397 56 28 136 28 193 0z m148 -219 c33 -37 56 -92 56 -135 0 -78 -63
-163 -136 -185 -76 -23 -167 24 -199 103 l-16 38 31 -23 c69 -51 173 -18 211
66 24 52 23 90 0 142 -19 41 -19 41 0 37 10 -3 34 -22 53 -43z m-514 -15 l0
-35 -55 0 -55 0 0 35 0 35 55 0 55 0 0 -35z m33 -247 c-23 -23 -45 -39 -49
-35 -11 10 69 95 81 85 6 -5 -7 -25 -32 -50z"/>
</g>
</svg>
